<?xml version="1.0" encoding="utf-8"?>
<!-- Generator: Adobe Illustrator 24.1.2, SVG Export Plug-In . SVG Version: 6.00 Build 0)  -->
<svg version="1.1" id="a2b7ec20-847e-4bc6-b3c1-c945a63661e1"
	 xmlns="http://www.w3.org/2000/svg" xmlns:xlink="http://www.w3.org/1999/xlink" x="0px" y="0px" viewBox="0 0 292.9 67.5"
	 style="enable-background:new 0 0 292.9 67.5;" xml:space="preserve">
<style type="text/css">
	.st0{fill:#FFFFFF;}
</style>
<g>
	<path class="st0" d="M0,24.8h6v30.4H0V24.8z M14.7,30.5C13.9,30.2,12.9,30,12,30c-1.6-0.1-3.2,0.5-4.4,1.6C6.5,32.8,5.9,34.4,6,36
		l-0.6-5.9c0.8-1.7,2.1-3.2,3.6-4.2c1.4-1,3.2-1.5,4.9-1.5c1.3,0,2.6,0.2,3.8,0.6c1.1,0.4,2.1,1,3,1.8L16.8,32
		C16.2,31.3,15.5,30.8,14.7,30.5L14.7,30.5z"/>
	<path class="st0" d="M25.6,24.8h6v30.4h-6V24.8z M40.4,30.5c-0.9-0.4-1.8-0.5-2.8-0.5c-1.6-0.1-3.2,0.5-4.4,1.6
		c-1.1,1.2-1.7,2.8-1.6,4.4L31,30.1c0.8-1.7,2.1-3.2,3.6-4.2c1.5-1,3.2-1.5,4.9-1.5c1.3,0,2.6,0.2,3.8,0.6c1.1,0.4,2.1,1,2.9,1.8
		L42.3,32C41.8,31.3,41.1,30.8,40.4,30.5L40.4,30.5z"/>
	<path class="st0" d="M54.6,54.2c-1.6-1-2.9-2.5-3.6-4.2c-0.9-2.1-1.3-4.4-1.2-6.7v-6.7c-0.1-2.3,0.3-4.6,1.2-6.7
		c0.7-1.7,1.9-3.2,3.5-4.2c1.7-1,3.6-1.5,5.5-1.4c1.7,0,3.5,0.5,4.9,1.4c1.5,1,2.8,2.4,3.6,4l-0.6,6.2c0-1.1-0.2-2.3-0.7-3.3
		c-0.4-0.9-1.1-1.6-2-2.1c-1-0.5-2.1-0.7-3.2-0.7c-1.7-0.1-3.4,0.6-4.6,1.8c-1.2,1.5-1.7,3.3-1.6,5.2v6.6c-0.1,1.8,0.5,3.7,1.6,5.1
		c1.2,1.2,2.9,1.9,4.6,1.8c1.1,0,2.2-0.2,3.2-0.7c0.9-0.5,1.6-1.3,2-2.2c0.5-1.1,0.7-2.2,0.7-3.4l0.4,6.4c-0.6,1.5-1.7,2.8-3,3.8
		c-1.5,1-3.3,1.6-5.1,1.5C58.2,55.7,56.3,55.2,54.6,54.2z M67.9,12.6h6v42.6h-6V12.6z"/>
	<path class="st0" d="M88.2,54c-2-1-3.6-2.7-4.6-4.6c-1.1-2.3-1.6-4.8-1.6-7.4v-3.4c-0.1-2.6,0.4-5.3,1.5-7.7c0.9-2,2.5-3.7,4.4-4.9
		c2.1-1.2,4.5-1.7,6.9-1.7c2.3-0.1,4.6,0.6,6.5,1.9c1.9,1.4,3.3,3.3,4.1,5.5c1,2.8,1.5,5.7,1.4,8.6v2H86.4v-4.8h14.8
		c0-2.1-0.7-4.1-1.9-5.8c-1.1-1.4-2.7-2.1-4.4-2.1c-2-0.1-3.9,0.7-5.3,2.2c-1.3,1.8-2,4-1.9,6.3v3.9c-0.1,2.1,0.6,4.2,2,5.8
		c1.5,1.4,3.6,2.1,5.6,2c1.2,0,2.5-0.3,3.6-0.7c1.2-0.5,2.3-1.2,3.2-2.1l3.9,3.9c-1.5,1.4-3.2,2.6-5.1,3.4c-1.8,0.8-3.7,1.2-5.7,1.2
		C92.9,55.7,90.5,55.1,88.2,54z"/>
	<path class="st0" d="M131.9,24.8h6.2l-11.4,30.4h-4.5l-11.4-30.4h6.2l7.4,21.7L131.9,24.8z"/>
	<path class="st0" d="M148.6,54c-2-1-3.6-2.7-4.6-4.6c-1.1-2.3-1.6-4.8-1.6-7.4v-3.4c-0.1-2.6,0.4-5.3,1.5-7.7
		c0.9-2,2.5-3.7,4.4-4.9c2.1-1.2,4.5-1.7,6.9-1.7c2.3-0.1,4.6,0.6,6.5,1.9c1.9,1.4,3.3,3.3,4.1,5.5c1,2.8,1.5,5.7,1.4,8.6v2h-20.5
		v-4.8h14.8c0-2.1-0.7-4.1-1.9-5.8c-1.1-1.4-2.7-2.1-4.4-2.1c-2-0.1-3.9,0.7-5.3,2.2c-1.3,1.8-2,4-1.9,6.3v3.9
		c-0.1,2.1,0.6,4.2,2,5.8c1.5,1.4,3.6,2.1,5.6,2c1.2,0,2.5-0.3,3.6-0.7c1.2-0.5,2.3-1.2,3.2-2.1l3.9,3.9c-1.5,1.4-3.2,2.6-5.1,3.4
		c-1.8,0.8-3.7,1.2-5.7,1.2C153.4,55.7,150.9,55.1,148.6,54z"/>
	<path class="st0" d="M181.5,47.3c0,0.6,0.1,1.2,0.5,1.7c0.3,0.4,0.8,0.6,1.4,0.6h2.8v5.7h-3.5c-2,0.1-3.9-0.7-5.3-2.1
		c-1.3-1.7-2-3.8-1.9-6V12.6h6L181.5,47.3z"/>
	<path class="st0" d="M197.8,54.1c-1.9-1-3.4-2.6-4.3-4.5c-1-2.2-1.5-4.7-1.5-7.2v-4.9c-0.1-2.4,0.4-4.9,1.5-7.1
		c0.9-1.9,2.4-3.5,4.3-4.5c4.3-2.1,9.3-2.1,13.5,0c1.9,1,3.4,2.6,4.3,4.5c1,2.2,1.5,4.6,1.5,7.1v5c0.1,2.5-0.4,4.9-1.5,7.1
		c-0.9,1.9-2.4,3.5-4.3,4.5C207.1,56.1,202.1,56.1,197.8,54.1L197.8,54.1z M209.4,48c1.2-1.6,1.8-3.5,1.7-5.5v-5
		c0.1-2-0.5-3.9-1.7-5.5c-2.7-2.6-7-2.6-9.7,0c-1.2,1.6-1.8,3.5-1.7,5.5v5c-0.1,2,0.5,3.9,1.7,5.5C202.4,50.6,206.7,50.6,209.4,48z"
		/>
	<path class="st0" d="M225.6,24.8h6v42.8h-6V24.8z M234.3,54.3c-1.4-0.9-2.5-2.3-3.1-3.9l0.4-6.4c0,1.2,0.2,2.3,0.7,3.3
		c0.4,0.9,1.1,1.6,2,2.1c1,0.5,2.1,0.8,3.2,0.7c1.7,0.1,3.4-0.6,4.6-1.8c1.2-1.4,1.7-3.2,1.6-5.1v-6.6c0.1-1.9-0.5-3.7-1.6-5.2
		c-1.2-1.3-2.9-1.9-4.6-1.9c-1.1,0-2.2,0.2-3.2,0.7c-0.9,0.5-1.6,1.2-2,2.1c-0.5,1-0.7,2.1-0.7,3.3l-0.6-5.9
		c0.8-1.7,2.1-3.1,3.6-4.1c1.5-1,3.2-1.5,5-1.4c1.9-0.1,3.9,0.5,5.5,1.4c1.6,1,2.8,2.5,3.5,4.2c0.9,2.1,1.3,4.4,1.2,6.7v6.6
		c0.1,2.3-0.4,4.5-1.2,6.6c-0.7,1.7-2,3.2-3.6,4.2c-1.7,1-3.7,1.5-5.7,1.5C237.5,55.7,235.8,55.2,234.3,54.3L234.3,54.3z"/>
	<path class="st0" d="M264,55.1c-1.5-0.3-3-0.9-4.4-1.6c-1.4-0.7-2.6-1.6-3.8-2.6l3.5-4.4c1.5,1.2,3.1,2.1,4.9,2.8
		c1.5,0.6,3.2,0.9,4.8,0.9c1.8,0.1,3.7-0.3,5.3-1.1c1.2-0.7,1.8-2,1.8-3.3c0.1-0.9-0.3-1.7-1-2.2c-0.7-0.5-1.5-0.9-2.4-1
		c-1-0.2-2.3-0.3-4-0.5h-0.5h-0.5h-0.2h-0.2c-1.7-0.1-3.4-0.4-5-0.9c-1.4-0.4-2.5-1.2-3.4-2.4c-1-1.5-1.5-3.2-1.4-5
		c-0.1-1.9,0.4-3.7,1.3-5.4c0.9-1.5,2.3-2.6,3.9-3.2c2.1-0.8,4.3-1.1,6.5-1.1c1.5,0,3,0.1,4.5,0.4c1.4,0.3,2.8,0.7,4.1,1.3
		c1.3,0.6,2.6,1.3,3.8,2.2l-3.6,4.4c-1.4-0.9-2.9-1.6-4.5-2.2c-1.4-0.5-2.9-0.7-4.3-0.7c-1.6-0.1-3.2,0.2-4.6,1
		c-1,0.7-1.6,1.9-1.5,3.1c0,0.7,0.3,1.4,0.9,1.8c0.7,0.4,1.4,0.7,2.2,0.8c0.9,0.1,2.1,0.3,3.8,0.4c0.1,0,0.2,0,0.4,0h0.4h0.2
		c0.1,0,0.1,0,0.2,0c1.8,0.1,3.7,0.4,5.4,0.9c1.5,0.4,2.8,1.3,3.8,2.6c1.1,1.6,1.6,3.6,1.5,5.5c0.1,1.9-0.4,3.8-1.4,5.4
		c-1,1.5-2.5,2.6-4.2,3.2c-2.3,0.8-4.7,1.2-7.1,1.1C267.3,55.5,265.6,55.4,264,55.1z"/>
</g>
<path class="st0" d="M291.6,0L291.6,0c0.7,0,1.4,0.6,1.4,1.4v56.3c0,0.8-0.6,1.4-1.4,1.4h0c-0.7,0-1.4-0.6-1.4-1.4V1.4
	C290.2,0.6,290.8,0,291.6,0z"/>
</svg>
