<svg id="bd094c78-b154-4bf0-b603-0a0913d86200" data-name="Layer 1" xmlns="http://www.w3.org/2000/svg" viewBox="0 0 1920 603">
  <path d="M443.85,87.51c.85,0,1.6,2.64,3.07,7.91,1.53,5.52,1.46,6.58,3.06,7.91,3.09,2.56,7.45,2,7.66,3.39.26,1.59-5.86,1.73-9.19,5.65-1.25,1.47-1.86,3.62-3.06,7.91-.79,2.78-1,4.52-1.54,4.52s-.73-1.66-1.53-4.52c-1.05-3.79-1.73-6.17-3.06-7.91-3.17-4.13-9.36-3.75-9.26-4.92.09-1,4.45-.67,7.73-4.12a9.44,9.44,0,0,0,.63-.73c.69-1,1-2.45,2.43-7.18C442.9,88.32,443.37,87.51,443.85,87.51Z" style="fill: #23d9cc"/>
  <path d="M1713.59,303.44c.9,0,1.69,2.52,3.24,7.57,1.63,5.29,1.55,6.3,3.25,7.57,3.26,2.46,7.87,1.95,8.1,3.25.27,1.53-6.2,1.65-9.73,5.41-1.32,1.41-2,3.47-3.24,7.58-.83,2.65-1.08,4.32-1.62,4.32s-.78-1.59-1.62-4.32c-1.31-4.27-2-6.4-3.24-7.58-3.5-3.22-9.64-2.77-9.73-4.33-.07-1.38,4.77-1.36,8.11-4.33,1.3-1.15,1.37-1.88,3.24-7.57C1712.58,304.21,1713.07,303.44,1713.59,303.44Z" style="fill: #f76966"/>
  <path d="M1060.56,110.89c.83,0,1.57,2.59,3,7.79,1.51,5.43,1.44,6.48,3,7.79,3,2.52,7.32,2,7.53,3.34.25,1.57-5.76,1.7-9,5.56-1.23,1.45-1.82,3.57-3,7.79-.77,2.74-1,4.46-1.51,4.46s-.72-1.64-1.51-4.46c-1.21-4.38-1.82-6.58-3-7.79-3.25-3.31-9-2.85-9-4.45-.07-1.42,4.44-1.4,7.53-4.45,1.21-1.19,1.28-1.94,3-7.79C1059.62,111.68,1060.08,110.89,1060.56,110.89Z" style="fill: #23d9cc"/>
  <path d="M208.56,284.51c.95,0,1.79,2.61,3.43,7.82,1.72,5.45,1.64,6.49,3.43,7.81,3.45,2.52,8.33,2,8.57,3.34.28,1.58-6.56,1.71-10.28,5.58-1.41,1.46-2.08,3.58-3.43,7.81-.88,2.74-1.15,4.47-1.72,4.47s-.82-1.64-1.71-4.47c-1.39-4.39-2.08-6.59-3.43-7.81-3.7-3.32-10.2-2.86-10.29-4.46-.08-1.42,5.05-1.4,8.57-4.46,1.38-1.2,1.46-1.94,3.43-7.81C207.5,285.31,208,284.51,208.56,284.51Z" style="fill: #23d9cc"/>
  <path d="M1885.66,151c.7,0,1.31,2.48,2.52,7.44,1.26,5.19,1.2,6.19,2.52,7.44,2.53,2.41,6.12,1.91,6.29,3.19.21,1.49-4.81,1.62-7.55,5.31-1,1.38-1.53,3.4-2.52,7.43-.64,2.62-.84,4.25-1.26,4.25s-.6-1.56-1.26-4.25c-1-4.18-1.52-6.28-2.52-7.43-2.71-3.17-7.49-2.72-7.55-4.25-.06-1.36,3.7-1.34,6.29-4.25,1-1.14,1.07-1.85,2.52-7.44C1884.88,151.72,1885.26,151,1885.66,151Z" style="fill: #23d9cc"/>
  <path d="M1559.49,182.51c2.56-2,4.82-4.06,6.15-6.72,6-12,1.79-26.34-8.44-36.42s-25.67-16.22-41.61-18.94c-21.64-3.7-44.58-1.5-65.13,5a157.46,157.46,0,0,0-48.85,26c-4.94,3.84-4.56,4-11.24,3.35-5.09-.48-10-1.38-15.19-1.65a138.38,138.38,0,0,0-32,2.09A134.43,134.43,0,0,0,1283.76,182Z" style="fill: #e6e6e6"/>
  <path d="M212.68,175c-2.56-2-4.82-4.06-6.15-6.72-6-12-1.79-26.35,8.44-36.42s25.67-16.22,41.61-19c21.64-3.7,44.58-1.49,65.13,5a157.34,157.34,0,0,1,48.85,26c4.94,3.84,4.57,4,11.25,3.34,5.08-.48,10-1.38,15.18-1.64a138.38,138.38,0,0,1,32,2.09,134.38,134.38,0,0,1,59.38,26.77Z" style="fill: #e6e6e6"/>
  <path d="M1083.39,255.76a7.66,7.66,0,0,0,2.55-2.21c2.48-4,.69-8.69-3.59-12s-10.72-5.39-17.37-6.31a72.9,72.9,0,0,0-27.11,1.58,71.69,71.69,0,0,0-20.3,8.51c-2.05,1.27-1.89,1.31-4.67,1.09-2.13-.16-4.19-.46-6.33-.56a73.12,73.12,0,0,0-13.34.65,63.36,63.36,0,0,0-24.68,8.76Z" style="fill: #e6e6e6"/>
  <path d="M804.09,600.32c-64.91-9.12-109-47.56-170.73-63a253.54,253.54,0,0,0-77.2-6.68c-12.82.84-25.57,2.65-38.46,2.4s-26.47-3-34.26-9.4c-5.61-4.62-7.54-10.53-9.83-16.15-9.23-22.66-28.48-45-60.9-56.72-28.66-10.35-65.8-10.86-95.16-1.3-26.49,8.62-51.75,25.31-80.55,20.35-23.69-4.09-34.59-20.85-41-35.67-8.91-20.65-15.88-42.11-33.86-60.31S111.83,341,77.83,343.57c-33,2.48-57.64,19.69-77.83,36.21L.55,598.35Z" style="fill: #ccc"/>
  <path d="M1920,600.55c-12.17-49.85-60.6-95.8-129.12-122.48-29.12-11.34-62.84-19.44-97.08-18-33.63,1.42-64.52,11.81-92.83,23.24-67.18,27.11-126.84,61.48-175.54,101.11-56.52-20.68-117.08-39.34-182.33-43-100.67-5.65-197.51,25-279.93,61.58Z" style="fill: #ccc"/>
  <rect width="1920" height="36" style="fill: none"/>
</svg>
